<?xml version="1.0" encoding="UTF-8" standalone="no"?><svg xmlns="http://www.w3.org/2000/svg" xmlns:xlink="http://www.w3.org/1999/xlink" clip-rule="evenodd" stroke-miterlimit="10" viewBox="0 0 1024 768"><desc>SVG generated by Keynote</desc><defs></defs><g transform="matrix(1.00, 0.00, -0.00, -1.00, 0.0, 768.0)"><path d="M 0.0 768.0 L 1024.0 768.0 L 1024.0 0.0 L 0.0 0.0 Z M 0.0 768.0 " fill="#FEFFFF"></path><image xlink:href="D9F908E6AB6AFC6509396236D40F11C3.png" width="163.00" height="96.00" transform="matrix(1.00, 0.00, -0.00, -1.00, 514.9, 252.6)" opacity="0.50"></image><path d="M 518.0 252.0 L 675.0 252.0 L 675.0 161.0 L 518.0 161.0 Z M 517.9 251.6 " fill="#6FBF40"></path><g><clipPath id="clip0x6000008ad080"><path d="M 515.9 161.3 L 676.7 161.3 L 676.7 253.6 L 515.9 253.6 Z M 515.9 161.3 "></path></clipPath><g clip-path="url(#clip0x6000008ad080)"><text xml:space="preserve" font-family="Helvetica-Light,Helvetica" font-size="24.0" fill="#FEFFFE" transform="matrix(1.00, 0.00, -0.00, -1.00, 539.6, 224.1)">I</text><text xml:space="preserve" font-family="Helvetica-Light,Helvetica" font-size="24.0" fill="#FEFFFE" transform="matrix(1.00, 0.00, -0.00, -1.00, 546.3, 224.1)">t</text><text xml:space="preserve" font-family="Helvetica-Light,Helvetica" font-size="24.0" fill="#FEFFFE" transform="matrix(1.00, 0.00, -0.00, -1.00, 553.0, 224.1)">e</text><text xml:space="preserve" font-family="Helvetica-Light,Helvetica" font-size="24.0" fill="#FEFFFE" transform="matrix(1.00, 0.00, -0.00, -1.00, 566.3, 224.1)">m</text><text xml:space="preserve" font-family="Helvetica-Light,Helvetica" font-size="24.0" fill="#FEFFFE" transform="matrix(1.00, 0.00, -0.00, -1.00, 586.3, 224.1)">P</text><text xml:space="preserve" font-family="Helvetica-Light,Helvetica" font-size="24.0" fill="#FEFFFE" transform="matrix(1.00, 0.00, -0.00, -1.00, 601.0, 224.1)">o</text><text xml:space="preserve" font-family="Helvetica-Light,Helvetica" font-size="24.0" fill="#FEFFFE" transform="matrix(1.00, 0.00, -0.00, -1.00, 614.3, 224.1)">o</text><text xml:space="preserve" font-family="Helvetica-Light,Helvetica" font-size="24.0" fill="#FEFFFE" transform="matrix(1.00, 0.00, -0.00, -1.00, 627.7, 224.1)">l</text><text xml:space="preserve" font-family="Helvetica-Light,Helvetica" font-size="24.0" fill="#FEFFFE" transform="matrix(1.00, 0.00, -0.00, -1.00, 633.0, 224.1)"> </text><text xml:space="preserve" font-family="Helvetica-Light,Helvetica" font-size="24.0" fill="#FEFFFE" transform="matrix(1.00, 0.00, -0.00, -1.00, 639.7, 224.1)">5</text></g></g><image xlink:href="A5EEE54F29802E1E5BECCFAD4FB954A0.png" width="172.00" height="96.00" transform="matrix(1.00, 0.00, -0.00, -1.00, 346.3, 252.6)" opacity="0.50"></image><path d="M 349.0 252.0 L 515.0 252.0 L 515.0 161.0 L 349.0 161.0 Z M 349.3 251.6 " fill="#EB5C56"></path><g><clipPath id="clip0x600000aa2fa0"><path d="M 347.3 161.3 L 516.9 161.3 L 516.9 253.6 L 347.3 253.6 Z M 347.3 161.3 "></path></clipPath><g clip-path="url(#clip0x600000aa2fa0)"><text xml:space="preserve" font-family="Helvetica-Light,Helvetica" font-size="24.0" fill="#FEFFFE" transform="matrix(1.00, 0.00, -0.00, -1.00, 375.4, 224.1)">I</text><text xml:space="preserve" font-family="Helvetica-Light,Helvetica" font-size="24.0" fill="#FEFFFE" transform="matrix(1.00, 0.00, -0.00, -1.00, 382.0, 224.1)">t</text><text xml:space="preserve" font-family="Helvetica-Light,Helvetica" font-size="24.0" fill="#FEFFFE" transform="matrix(1.00, 0.00, -0.00, -1.00, 388.7, 224.1)">e</text><text xml:space="preserve" font-family="Helvetica-Light,Helvetica" font-size="24.0" fill="#FEFFFE" transform="matrix(1.00, 0.00, -0.00, -1.00, 402.1, 224.1)">m</text><text xml:space="preserve" font-family="Helvetica-Light,Helvetica" font-size="24.0" fill="#FEFFFE" transform="matrix(1.00, 0.00, -0.00, -1.00, 422.1, 224.1)">P</text><text xml:space="preserve" font-family="Helvetica-Light,Helvetica" font-size="24.0" fill="#FEFFFE" transform="matrix(1.00, 0.00, -0.00, -1.00, 436.7, 224.1)">o</text><text xml:space="preserve" font-family="Helvetica-Light,Helvetica" font-size="24.0" fill="#FEFFFE" transform="matrix(1.00, 0.00, -0.00, -1.00, 450.1, 224.1)">o</text><text xml:space="preserve" font-family="Helvetica-Light,Helvetica" font-size="24.0" fill="#FEFFFE" transform="matrix(1.00, 0.00, -0.00, -1.00, 463.4, 224.1)">l</text><text xml:space="preserve" font-family="Helvetica-Light,Helvetica" font-size="24.0" fill="#FEFFFE" transform="matrix(1.00, 0.00, -0.00, -1.00, 468.7, 224.1)"> </text><text xml:space="preserve" font-family="Helvetica-Light,Helvetica" font-size="24.0" fill="#FEFFFE" transform="matrix(1.00, 0.00, -0.00, -1.00, 475.4, 224.1)">4</text></g></g><image xlink:href="AB5F62842FCE5093AFBC24A356B52CBF.png" width="163.00" height="96.00" transform="matrix(1.00, 0.00, -0.00, -1.00, 843.4, 252.6)" opacity="0.50"></image><path d="M 846.0 252.0 L 1003.0 252.0 L 1003.0 161.0 L 846.0 161.0 Z M 846.4 251.6 " fill="#6FBF40"></path><g><clipPath id="clip0x6080008b2120"><path d="M 844.4 161.3 L 1005.2 161.3 L 1005.2 253.6 L 844.4 253.6 Z M 844.4 161.3 "></path></clipPath><g clip-path="url(#clip0x6080008b2120)"><text xml:space="preserve" font-family="Helvetica-Light,Helvetica" font-size="24.0" fill="#FEFFFE" transform="matrix(1.00, 0.00, -0.00, -1.00, 868.1, 224.1)">I</text><text xml:space="preserve" font-family="Helvetica-Light,Helvetica" font-size="24.0" fill="#FEFFFE" transform="matrix(1.00, 0.00, -0.00, -1.00, 874.8, 224.1)">t</text><text xml:space="preserve" font-family="Helvetica-Light,Helvetica" font-size="24.0" fill="#FEFFFE" transform="matrix(1.00, 0.00, -0.00, -1.00, 881.5, 224.1)">e</text><text xml:space="preserve" font-family="Helvetica-Light,Helvetica" font-size="24.0" fill="#FEFFFE" transform="matrix(1.00, 0.00, -0.00, -1.00, 894.8, 224.1)">m</text><text xml:space="preserve" font-family="Helvetica-Light,Helvetica" font-size="24.0" fill="#FEFFFE" transform="matrix(1.00, 0.00, -0.00, -1.00, 914.8, 224.1)">P</text><text xml:space="preserve" font-family="Helvetica-Light,Helvetica" font-size="24.0" fill="#FEFFFE" transform="matrix(1.00, 0.00, -0.00, -1.00, 929.5, 224.1)">o</text><text xml:space="preserve" font-family="Helvetica-Light,Helvetica" font-size="24.0" fill="#FEFFFE" transform="matrix(1.00, 0.00, -0.00, -1.00, 942.8, 224.1)">o</text><text xml:space="preserve" font-family="Helvetica-Light,Helvetica" font-size="24.0" fill="#FEFFFE" transform="matrix(1.00, 0.00, -0.00, -1.00, 956.2, 224.1)">l</text><text xml:space="preserve" font-family="Helvetica-Light,Helvetica" font-size="24.0" fill="#FEFFFE" transform="matrix(1.00, 0.00, -0.00, -1.00, 961.5, 224.1)"> </text><text xml:space="preserve" font-family="Helvetica-Light,Helvetica" font-size="24.0" fill="#FEFFFE" transform="matrix(1.00, 0.00, -0.00, -1.00, 968.2, 224.1)">7</text></g></g><image xlink:href="F58D0AA7EEDC88F8ABBC1B3D2941E1AF.png" width="172.00" height="96.00" transform="matrix(1.00, 0.00, -0.00, -1.00, 674.8, 252.6)" opacity="0.50"></image><path d="M 678.0 252.0 L 843.0 252.0 L 843.0 161.0 L 678.0 161.0 Z M 677.8 251.6 " fill="#EB5C56"></path><g><clipPath id="clip0x6080008b7ee0"><path d="M 675.8 161.3 L 845.4 161.3 L 845.4 253.6 L 675.8 253.6 Z M 675.8 161.3 "></path></clipPath><g clip-path="url(#clip0x6080008b7ee0)"><text xml:space="preserve" font-family="Helvetica-Light,Helvetica" font-size="24.0" fill="#FEFFFE" transform="matrix(1.00, 0.00, -0.00, -1.00, 703.9, 224.1)">I</text><text xml:space="preserve" font-family="Helvetica-Light,Helvetica" font-size="24.0" fill="#FEFFFE" transform="matrix(1.00, 0.00, -0.00, -1.00, 710.5, 224.1)">t</text><text xml:space="preserve" font-family="Helvetica-Light,Helvetica" font-size="24.0" fill="#FEFFFE" transform="matrix(1.00, 0.00, -0.00, -1.00, 717.2, 224.1)">e</text><text xml:space="preserve" font-family="Helvetica-Light,Helvetica" font-size="24.0" fill="#FEFFFE" transform="matrix(1.00, 0.00, -0.00, -1.00, 730.6, 224.1)">m</text><text xml:space="preserve" font-family="Helvetica-Light,Helvetica" font-size="24.0" fill="#FEFFFE" transform="matrix(1.00, 0.00, -0.00, -1.00, 750.6, 224.1)">P</text><text xml:space="preserve" font-family="Helvetica-Light,Helvetica" font-size="24.0" fill="#FEFFFE" transform="matrix(1.00, 0.00, -0.00, -1.00, 765.2, 224.1)">o</text><text xml:space="preserve" font-family="Helvetica-Light,Helvetica" font-size="24.0" fill="#FEFFFE" transform="matrix(1.00, 0.00, -0.00, -1.00, 778.6, 224.1)">o</text><text xml:space="preserve" font-family="Helvetica-Light,Helvetica" font-size="24.0" fill="#FEFFFE" transform="matrix(1.00, 0.00, -0.00, -1.00, 791.9, 224.1)">l</text><text xml:space="preserve" font-family="Helvetica-Light,Helvetica" font-size="24.0" fill="#FEFFFE" transform="matrix(1.00, 0.00, -0.00, -1.00, 797.2, 224.1)"> </text><text xml:space="preserve" font-family="Helvetica-Light,Helvetica" font-size="24.0" fill="#FEFFFE" transform="matrix(1.00, 0.00, -0.00, -1.00, 803.9, 224.1)">6</text></g></g><image xlink:href="9EA1E6DCA8AA027DFEEA850436BD058D.png" width="163.00" height="96.00" transform="matrix(1.00, 0.00, -0.00, -1.00, 678.6, 410.2)" opacity="0.50"></image><path d="M 682.0 409.0 L 838.0 409.0 L 838.0 319.0 L 682.0 319.0 Z M 681.6 409.2 " fill="#6FBF40"></path><g><clipPath id="clip0x6000008becc0"><path d="M 679.6 318.9 L 840.5 318.9 L 840.5 411.2 L 679.6 411.2 Z M 679.6 318.9 "></path></clipPath><g clip-path="url(#clip0x6000008becc0)"><text xml:space="preserve" font-family="Helvetica-Light,Helvetica" font-size="24.0" fill="#FEFFFE" transform="matrix(1.00, 0.00, -0.00, -1.00, 703.4, 381.7)">I</text><text xml:space="preserve" font-family="Helvetica-Light,Helvetica" font-size="24.0" fill="#FEFFFE" transform="matrix(1.00, 0.00, -0.00, -1.00, 710.0, 381.7)">t</text><text xml:space="preserve" font-family="Helvetica-Light,Helvetica" font-size="24.0" fill="#FEFFFE" transform="matrix(1.00, 0.00, -0.00, -1.00, 716.7, 381.7)">e</text><text xml:space="preserve" font-family="Helvetica-Light,Helvetica" font-size="24.0" fill="#FEFFFE" transform="matrix(1.00, 0.00, -0.00, -1.00, 730.0, 381.7)">m</text><text xml:space="preserve" font-family="Helvetica-Light,Helvetica" font-size="24.0" fill="#FEFFFE" transform="matrix(1.00, 0.00, -0.00, -1.00, 750.0, 381.7)">P</text><text xml:space="preserve" font-family="Helvetica-Light,Helvetica" font-size="24.0" fill="#FEFFFE" transform="matrix(1.00, 0.00, -0.00, -1.00, 764.7, 381.7)">o</text><text xml:space="preserve" font-family="Helvetica-Light,Helvetica" font-size="24.0" fill="#FEFFFE" transform="matrix(1.00, 0.00, -0.00, -1.00, 778.0, 381.7)">o</text><text xml:space="preserve" font-family="Helvetica-Light,Helvetica" font-size="24.0" fill="#FEFFFE" transform="matrix(1.00, 0.00, -0.00, -1.00, 791.4, 381.7)">l</text><text xml:space="preserve" font-family="Helvetica-Light,Helvetica" font-size="24.0" fill="#FEFFFE" transform="matrix(1.00, 0.00, -0.00, -1.00, 796.7, 381.7)"> </text><text xml:space="preserve" font-family="Helvetica-Light,Helvetica" font-size="24.0" fill="#FEFFFE" transform="matrix(1.00, 0.00, -0.00, -1.00, 803.4, 381.7)">3</text></g></g><image xlink:href="525DD07738A1BB7A698919BEF76A12A5.png" width="172.00" height="96.00" transform="matrix(1.00, 0.00, -0.00, -1.00, 510.0, 410.2)" opacity="0.50"></image><path d="M 513.0 409.0 L 679.0 409.0 L 679.0 319.0 L 513.0 319.0 Z M 513.0 409.2 " fill="#EB5C56"></path><g><clipPath id="clip0x6000008a9ba0"><path d="M 511.0 318.9 L 680.6 318.9 L 680.6 411.2 L 511.0 411.2 Z M 511.0 318.9 "></path></clipPath><g clip-path="url(#clip0x6000008a9ba0)"><text xml:space="preserve" font-family="Helvetica-Light,Helvetica" font-size="24.0" fill="#FEFFFE" transform="matrix(1.00, 0.00, -0.00, -1.00, 539.1, 381.7)">I</text><text xml:space="preserve" font-family="Helvetica-Light,Helvetica" font-size="24.0" fill="#FEFFFE" transform="matrix(1.00, 0.00, -0.00, -1.00, 545.8, 381.7)">t</text><text xml:space="preserve" font-family="Helvetica-Light,Helvetica" font-size="24.0" fill="#FEFFFE" transform="matrix(1.00, 0.00, -0.00, -1.00, 552.4, 381.7)">e</text><text xml:space="preserve" font-family="Helvetica-Light,Helvetica" font-size="24.0" fill="#FEFFFE" transform="matrix(1.00, 0.00, -0.00, -1.00, 565.8, 381.7)">m</text><text xml:space="preserve" font-family="Helvetica-Light,Helvetica" font-size="24.0" fill="#FEFFFE" transform="matrix(1.00, 0.00, -0.00, -1.00, 585.8, 381.7)">P</text><text xml:space="preserve" font-family="Helvetica-Light,Helvetica" font-size="24.0" fill="#FEFFFE" transform="matrix(1.00, 0.00, -0.00, -1.00, 600.4, 381.7)">o</text><text xml:space="preserve" font-family="Helvetica-Light,Helvetica" font-size="24.0" fill="#FEFFFE" transform="matrix(1.00, 0.00, -0.00, -1.00, 613.8, 381.7)">o</text><text xml:space="preserve" font-family="Helvetica-Light,Helvetica" font-size="24.0" fill="#FEFFFE" transform="matrix(1.00, 0.00, -0.00, -1.00, 627.1, 381.7)">l</text><text xml:space="preserve" font-family="Helvetica-Light,Helvetica" font-size="24.0" fill="#FEFFFE" transform="matrix(1.00, 0.00, -0.00, -1.00, 632.5, 381.7)"> </text><text xml:space="preserve" font-family="Helvetica-Light,Helvetica" font-size="24.0" fill="#FEFFFE" transform="matrix(1.00, 0.00, -0.00, -1.00, 639.1, 381.7)">2</text></g></g><g><clipPath id="clip0x6000008b9860"><path d="M 187.3 410.2 C 215.9 381.6 215.9 335.3 187.3 306.7 C 158.8 278.2 112.6 278.2 84.0 306.7 C 55.5 335.3 55.5 381.6 84.0 410.2 C 112.6 438.7 158.8 438.7 187.3 410.2 Z M 187.3 410.2 "></path></clipPath><g clip-path="url(#clip0x6000008b9860)"><g><clipPath id="clip0x6000008bd940"><path d="M 61.6 284.3 L 209.7 284.3 L 209.7 432.6 L 61.6 432.6 Z M 61.6 284.3 "></path></clipPath><g clip-path="url(#clip0x6000008bd940)"><image xlink:href="8571D34485008A2B4E76C6C919FEC199.png" width="600.00" height="600.00" transform="matrix(0.50, 0.00, -0.00, -0.50, 62.6, 431.6)"></image></g></g></g></g><g><clipPath id="clip0x6000008bd9a0"><path d="M 206.4 258.3 C 245.5 231.9 245.5 188.9 206.4 162.5 C 167.4 136.0 104.0 136.0 64.9 162.5 C 25.9 188.9 25.9 231.9 64.9 258.3 C 104.0 284.8 167.4 284.8 206.4 258.3 Z M 206.4 258.3 "></path></clipPath><g clip-path="url(#clip0x6000008bd9a0)"><g><clipPath id="clip0x6000008b3da0"><path d="M 34.6 141.6 L 236.7 141.6 L 236.7 279.2 L 34.6 279.2 Z M 34.6 141.6 "></path></clipPath><g clip-path="url(#clip0x6000008b3da0)"><image xlink:href="../../0099E750-43F4-4A1E-80C1-2076B752852F/assets/8571D34485008A2B4E76C6C919FEC199.png" width="600.00" height="600.00" transform="matrix(0.50, 0.00, -0.00, -0.50, 35.6, 278.2)"></image></g></g></g></g><g><clipPath id="clip0x600000aa3ea0"><path d="M 36.0 210.0 L 236.0 210.0 L 236.0 110.0 L 36.0 110.0 Z M 35.7 209.6 "></path></clipPath><g clip-path="url(#clip0x600000aa3ea0)"><g><clipPath id="clip0x600000aa03c0"><path d="M 34.7 108.6 L 236.7 108.6 L 236.7 210.6 L 34.7 210.6 Z M 34.7 108.6 "></path></clipPath><g clip-path="url(#clip0x600000aa03c0)"><image xlink:href="../../0099E750-43F4-4A1E-80C1-2076B752852F/assets/8571D34485008A2B4E76C6C919FEC199.png" width="600.00" height="600.00" transform="matrix(0.50, 0.00, -0.00, -0.50, 36.0, 210.0)"></image></g></g></g></g><text xml:space="preserve" font-family="Helvetica-Light,Helvetica" font-size="80.0" fill="#000000" transform="matrix(1.00, 0.00, -0.00, -1.00, 323.8, 618.4)">O</text><text xml:space="preserve" font-family="Helvetica-Light,Helvetica" font-size="80.0" fill="#000000" transform="matrix(1.00, 0.00, -0.00, -1.00, 386.0, 618.4)">v</text><text xml:space="preserve" font-family="Helvetica-Light,Helvetica" font-size="80.0" fill="#000000" transform="matrix(1.00, 0.00, -0.00, -1.00, 426.0, 618.4)">e</text><text xml:space="preserve" font-family="Helvetica-Light,Helvetica" font-size="80.0" fill="#000000" transform="matrix(1.00, 0.00, -0.00, -1.00, 470.5, 618.4)">r</text><text xml:space="preserve" font-family="Helvetica-Light,Helvetica" font-size="80.0" fill="#000000" transform="matrix(1.00, 0.00, -0.00, -1.00, 497.1, 618.4)">h</text><text xml:space="preserve" font-family="Helvetica-Light,Helvetica" font-size="80.0" fill="#000000" transform="matrix(1.00, 0.00, -0.00, -1.00, 541.6, 618.4)">o</text><text xml:space="preserve" font-family="Helvetica-Light,Helvetica" font-size="80.0" fill="#000000" transform="matrix(1.00, 0.00, -0.00, -1.00, 586.1, 618.4)">r</text><text xml:space="preserve" font-family="Helvetica-Light,Helvetica" font-size="80.0" fill="#000000" transform="matrix(1.00, 0.00, -0.00, -1.00, 611.3, 618.4)">e</text><text xml:space="preserve" font-family="Helvetica-Light,Helvetica" font-size="80.0" fill="#000000" transform="matrix(1.00, 0.00, -0.00, -1.00, 655.8, 618.4)">n</text><image xlink:href="0777BA463D7DABAEB80AA68B3FC9D075.png" width="106.00" height="106.00" transform="matrix(1.00, 0.00, -0.00, -1.00, 1659.0, 542.6)" opacity="0.50"></image><g><clipPath id="clip0x6000008be0c0"><path d="M 1662.0 542.0 L 1762.0 542.0 L 1762.0 442.0 L 1662.0 442.0 Z M 1662.0 541.6 "></path></clipPath><g clip-path="url(#clip0x6000008be0c0)"><image xlink:href="../../0099E750-43F4-4A1E-80C1-2076B752852F/assets/8571D34485008A2B4E76C6C919FEC199.png" width="600.00" height="600.00" transform="matrix(0.50, 0.00, -0.00, -0.50, 1662.0, 542.0)"></image></g></g><image xlink:href="8565ED5596C1A7D386545D0FFAF81B24.png" width="333.00" height="102.00" transform="matrix(1.00, 0.00, -0.00, -1.00, 510.0, 567.8)" opacity="0.50"></image><path d="M 513.0 567.0 L 840.0 567.0 L 840.0 471.0 L 513.0 471.0 Z M 513.0 566.8 " fill="#EB5C56"></path><g><clipPath id="clip0x6080008baa60"><path d="M 511.0 470.8 L 842.1 470.8 L 842.1 568.8 L 511.0 568.8 Z M 511.0 470.8 "></path></clipPath><g clip-path="url(#clip0x6080008baa60)"><text xml:space="preserve" font-family="Helvetica-Light,Helvetica" font-size="24.0" fill="#FEFFFE" transform="matrix(1.00, 0.00, -0.00, -1.00, 619.8, 539.3)">I</text><text xml:space="preserve" font-family="Helvetica-Light,Helvetica" font-size="24.0" fill="#FEFFFE" transform="matrix(1.00, 0.00, -0.00, -1.00, 626.5, 539.3)">t</text><text xml:space="preserve" font-family="Helvetica-Light,Helvetica" font-size="24.0" fill="#FEFFFE" transform="matrix(1.00, 0.00, -0.00, -1.00, 633.2, 539.3)">e</text><text xml:space="preserve" font-family="Helvetica-Light,Helvetica" font-size="24.0" fill="#FEFFFE" transform="matrix(1.00, 0.00, -0.00, -1.00, 646.5, 539.3)">m</text><text xml:space="preserve" font-family="Helvetica-Light,Helvetica" font-size="24.0" fill="#FEFFFE" transform="matrix(1.00, 0.00, -0.00, -1.00, 666.5, 539.3)">P</text><text xml:space="preserve" font-family="Helvetica-Light,Helvetica" font-size="24.0" fill="#FEFFFE" transform="matrix(1.00, 0.00, -0.00, -1.00, 681.2, 539.3)">o</text><text xml:space="preserve" font-family="Helvetica-Light,Helvetica" font-size="24.0" fill="#FEFFFE" transform="matrix(1.00, 0.00, -0.00, -1.00, 694.5, 539.3)">o</text><text xml:space="preserve" font-family="Helvetica-Light,Helvetica" font-size="24.0" fill="#FEFFFE" transform="matrix(1.00, 0.00, -0.00, -1.00, 707.9, 539.3)">l</text><text xml:space="preserve" font-family="Helvetica-Light,Helvetica" font-size="24.0" fill="#FEFFFE" transform="matrix(1.00, 0.00, -0.00, -1.00, 713.2, 539.3)"> </text><text xml:space="preserve" font-family="Helvetica-Light,Helvetica" font-size="24.0" fill="#FEFFFE" transform="matrix(1.00, 0.00, -0.00, -1.00, 719.9, 539.3)">1</text></g></g><image xlink:href="A36CF581240938EEEE175B102FC95117.png" width="59.00" height="61.00" transform="matrix(1.00, 0.00, -0.00, -1.00, 761.0, 536.0)"></image><image xlink:href="A665290F0D3610622EDBBB0C5D70DE02.png" width="59.00" height="61.00" transform="matrix(1.00, 0.00, -0.00, -1.00, 685.0, 536.0)"></image><image xlink:href="85EF73F9706C3398E0EB55C2BEF3C407.png" width="59.00" height="61.00" transform="matrix(1.00, 0.00, -0.00, -1.00, 609.0, 536.0)"></image><image xlink:href="B5143CF7251DA0804907A334F9068D7A.png" width="60.00" height="61.00" transform="matrix(1.00, 0.00, -0.00, -1.00, 532.0, 536.0)"></image><path d="M 0.0 0.0 L 42.4 0.0 L 43.4 0.0 " fill="none" stroke="#FEFFFF" stroke-width="2.00" transform="matrix(-0.71, 0.71, 0.71, 0.71, 463.0, 403.6)"></path><path d="M 436.4 437.0 L 426.2 440.4 L 429.6 430.2 Z M 436.4 437.0 " fill="#FEFFFF"></path></g></svg>