<?xml version="1.0" encoding="UTF-8" standalone="no"?><svg xmlns="http://www.w3.org/2000/svg" xmlns:xlink="http://www.w3.org/1999/xlink" clip-rule="evenodd" stroke-miterlimit="10" viewBox="0 0 166 103"><desc>SVG generated by Keynote</desc><defs></defs><g transform="matrix(1.00, 0.00, -0.00, -1.00, 0.0, 103.0)"><image xlink:href="../../0099E750-43F4-4A1E-80C1-2076B752852F/assets/D9F908E6AB6AFC6509396236D40F11C3.png" width="163.00" height="96.00" transform="matrix(1.00, 0.00, -0.00, -1.00, 1.9, 97.6)" opacity="0.50"></image><path d="M 5.0 97.0 L 162.0 97.0 L 162.0 6.0 L 5.0 6.0 Z M 4.9 96.6 " fill="#6FBF40"></path><g><clipPath id="clip0x608000aa2ee0"><path d="M 2.9 6.3 L 163.7 6.3 L 163.7 98.6 L 2.9 98.6 Z M 2.9 6.3 "></path></clipPath><g clip-path="url(#clip0x608000aa2ee0)"><text xml:space="preserve" font-family="Helvetica-Light,Helvetica" font-size="24.0" fill="#FEFFFE" transform="matrix(1.00, 0.00, -0.00, -1.00, 26.6, 69.1)">I</text><text xml:space="preserve" font-family="Helvetica-Light,Helvetica" font-size="24.0" fill="#FEFFFE" transform="matrix(1.00, 0.00, -0.00, -1.00, 33.3, 69.1)">t</text><text xml:space="preserve" font-family="Helvetica-Light,Helvetica" font-size="24.0" fill="#FEFFFE" transform="matrix(1.00, 0.00, -0.00, -1.00, 40.0, 69.1)">e</text><text xml:space="preserve" font-family="Helvetica-Light,Helvetica" font-size="24.0" fill="#FEFFFE" transform="matrix(1.00, 0.00, -0.00, -1.00, 53.3, 69.1)">m</text><text xml:space="preserve" font-family="Helvetica-Light,Helvetica" font-size="24.0" fill="#FEFFFE" transform="matrix(1.00, 0.00, -0.00, -1.00, 73.3, 69.1)">P</text><text xml:space="preserve" font-family="Helvetica-Light,Helvetica" font-size="24.0" fill="#FEFFFE" transform="matrix(1.00, 0.00, -0.00, -1.00, 88.0, 69.1)">o</text><text xml:space="preserve" font-family="Helvetica-Light,Helvetica" font-size="24.0" fill="#FEFFFE" transform="matrix(1.00, 0.00, -0.00, -1.00, 101.3, 69.1)">o</text><text xml:space="preserve" font-family="Helvetica-Light,Helvetica" font-size="24.0" fill="#FEFFFE" transform="matrix(1.00, 0.00, -0.00, -1.00, 114.7, 69.1)">l</text><text xml:space="preserve" font-family="Helvetica-Light,Helvetica" font-size="24.0" fill="#FEFFFE" transform="matrix(1.00, 0.00, -0.00, -1.00, 120.0, 69.1)"> </text><text xml:space="preserve" font-family="Helvetica-Light,Helvetica" font-size="24.0" fill="#FEFFFE" transform="matrix(1.00, 0.00, -0.00, -1.00, 126.7, 69.1)">5</text></g></g></g></svg>