<?xml version="1.0" encoding="UTF-8" standalone="no"?><svg xmlns="http://www.w3.org/2000/svg" xmlns:xlink="http://www.w3.org/1999/xlink" clip-rule="evenodd" stroke-miterlimit="10" viewBox="0 0 336 109"><desc>SVG generated by Keynote</desc><defs></defs><g transform="matrix(1.00, 0.00, -0.00, -1.00, 0.0, 109.0)"><image xlink:href="../../0099E750-43F4-4A1E-80C1-2076B752852F/assets/8565ED5596C1A7D386545D0FFAF81B24.png" width="333.00" height="102.00" transform="matrix(1.00, 0.00, -0.00, -1.00, 1.0, 103.8)" opacity="0.50"></image><path d="M 4.0 103.0 L 331.0 103.0 L 331.0 7.0 L 4.0 7.0 Z M 4.0 102.8 " fill="#EB5C56"></path><g><clipPath id="clip0x608000aa32a0"><path d="M 2.0 6.8 L 333.1 6.8 L 333.1 104.8 L 2.0 104.8 Z M 2.0 6.8 "></path></clipPath><g clip-path="url(#clip0x608000aa32a0)"><text xml:space="preserve" font-family="Helvetica-Light,Helvetica" font-size="24.0" fill="#FEFFFE" transform="matrix(1.00, 0.00, -0.00, -1.00, 110.8, 75.3)">I</text><text xml:space="preserve" font-family="Helvetica-Light,Helvetica" font-size="24.0" fill="#FEFFFE" transform="matrix(1.00, 0.00, -0.00, -1.00, 117.5, 75.3)">t</text><text xml:space="preserve" font-family="Helvetica-Light,Helvetica" font-size="24.0" fill="#FEFFFE" transform="matrix(1.00, 0.00, -0.00, -1.00, 124.2, 75.3)">e</text><text xml:space="preserve" font-family="Helvetica-Light,Helvetica" font-size="24.0" fill="#FEFFFE" transform="matrix(1.00, 0.00, -0.00, -1.00, 137.5, 75.3)">m</text><text xml:space="preserve" font-family="Helvetica-Light,Helvetica" font-size="24.0" fill="#FEFFFE" transform="matrix(1.00, 0.00, -0.00, -1.00, 157.5, 75.3)">P</text><text xml:space="preserve" font-family="Helvetica-Light,Helvetica" font-size="24.0" fill="#FEFFFE" transform="matrix(1.00, 0.00, -0.00, -1.00, 172.2, 75.3)">o</text><text xml:space="preserve" font-family="Helvetica-Light,Helvetica" font-size="24.0" fill="#FEFFFE" transform="matrix(1.00, 0.00, -0.00, -1.00, 185.5, 75.3)">o</text><text xml:space="preserve" font-family="Helvetica-Light,Helvetica" font-size="24.0" fill="#FEFFFE" transform="matrix(1.00, 0.00, -0.00, -1.00, 198.9, 75.3)">l</text><text xml:space="preserve" font-family="Helvetica-Light,Helvetica" font-size="24.0" fill="#FEFFFE" transform="matrix(1.00, 0.00, -0.00, -1.00, 204.2, 75.3)"> </text><text xml:space="preserve" font-family="Helvetica-Light,Helvetica" font-size="24.0" fill="#FEFFFE" transform="matrix(1.00, 0.00, -0.00, -1.00, 210.9, 75.3)">1</text></g></g></g></svg>